# xmcd CD database file
#
# Track frame offsets:
#	150
#	12685
#	25720
#	58757
#	76105
#	90785
#	104252
#	116550
#	135772
#	149647
#	175057
#	192447
#	206052
#
# Disc length: 3082 seconds
#
# Revision: 0
# Processed by: cddbd v1.5.1PL0 Copyright (c) Steve Scherf et al.
# Submitted via: CDex 1.51
#
DISCID=a70c080d
DTITLE=Eddie and the Hot Rods - Get Your Rocks Off
DYEAR=1976
DGENRE=Punk Rock
TTITLE0=The Kids Are Alright
TTITLE1=He Came Out of the Sky
TTITLE2=On the Run
TTITLE3=Cruisin' in the Lincoln
TTITLE4=Wooly Bully
TTITLE5=Writing on the Wall
TTITLE6=Horseplay
TTITLE7=Gloria
TTITLE8=Double Checking Woman
TTITLE9=Get Out of Denver
TTITLE10=Moving On
TTITLE11=Bye Bye Johnny
TTITLE12=Satisfaction
EXTD=YEAR: 1976
EXTT0=
EXTT1=
EXTT2=
EXTT3=
EXTT4=
EXTT5=
EXTT6=
EXTT7=
EXTT8=
EXTT9=
EXTT10=
EXTT11=
EXTT12=
PLAYORDER=
